<?xml version="1.0" encoding="utf-8"?>
<!-- Generator: Adobe Illustrator 18.1.1, SVG Export Plug-In . SVG Version: 6.00 Build 0)  -->
<svg version="1.1" id="Layer_1" xmlns="http://www.w3.org/2000/svg" xmlns:xlink="http://www.w3.org/1999/xlink" x="0px" y="0px"
	 viewBox="0 0 639 230" enable-background="new 0 0 639 230" xml:space="preserve">
<path fill="#F2F5F0" d="M234.3,44.1C249,42.9,258,27.3,255.9,18C253.9,8.6,245.8,4,239.2,3.1c-6.6-0.9-8.4-2.6-12.3-3.1
	c-3.9-0.5-11.6,5.2-11.1,14.9C216.2,22.3,219.6,45.3,234.3,44.1z"/>
<path fill="#F2F5F0" d="M638.7,191.3c-0.7-2.2-1.7-3.8-5.2-2.2c-2.9,1.3-15.3,21-23.3,4.1c-3-6.4-3.9-8.5-4.8-15.5
	c-1.5-12.7,1-21.5,0.4-34.3c-0.4-9.2-7.7-12.8-16.2-11.1c-7.1,1.4-12.9,5.3-17.9,10.9c-3.6,4-7.2,8-11.1,12.3
	c-1.3-6.9-2.1-13.1-3.6-19c-1.8-6.6-6.2-8.7-12.6-7.7c-11.1,1.7-19.4,8.6-26.7,17.5c-2.6,3.2-5.2,5.4-8.3,9.2
	c-0.1-5.4-0.1-8.9-0.4-13.2c-0.4-7.6-4.2-10.5-10.6-7.3c-8.3,4.2-13.5,12.2-19.8,21.3c-8,11.5-15.7,33.4-25.8,39.9
	c-7.5,4.4-13.8,0.2-13.2-3.7c1.7-12.7,3.6-25.4,5.2-38.1c1.5-11.4,3.5-25.1,4.3-36.6c0.5-7.6-3.4-11-10.5-10.5
	c-12.3,1-17.7,10.1-21.4,20.7c-2.8,7.8-5.1,18.4-7.5,26.5c-3.9,13.1-7.9,26.3-17.7,35.5c-3.4,3.2-7.9,5.6-12.3,7
	c-4.6,1.5-7-0.8-7.6-6.3c-0.4-3.6-0.3-7.3,0.2-10.8c2.1-16.3,4.5-28.3,6.5-44.6c1.2-10-5-11.4-14.6-9.8c-4.6,0.8-11.1,2.9-14.1,9.5
	c-0.7,1.5-1.2,2.7-1.6,3.8v0c0,0,0,0,0,0.1c-0.4,1.2-0.7,2.3-0.9,3.5c-5.6,21.1-12.8,34.3-20.1,45.8c-8.9,14.2-22.2,27.7-26.3,22.5
	c-8.6-10.9,4.7-34.6,11-48.6c6.3-13.9,13-19.4,8.3-29.4c-3.7-7.9-9.9-17.8-19.3-16.7c-8.5,1-13.1,2.8-22.6,5.4
	c-7.2,2-2.1-5.6-1.1-10.9c1.3-8.4-6.9-9.3-14.5-7.9c-7.6,1.5-12.1,6.2-13.4,13.8c-1.3,7.6,6.5,14.2,6.5,14.8
	c0,0.5-5.7,16.7-8.3,23.3c-8.7,21.4-12.9,28.3-19.2,30.7c-6.3,2.4-8.9-4.9-8.1-10.8c2.1-17,7.2-36,7.6-53.1
	c0.4-17.4-1.3-22.5-11.2-29.7c-2.6-1.9-10.2-1.5-15.4,10.9c-0.8,1.9-7.8,18.6-14.1,34.2c-2.6,6.3-15.6,35.7-25.9,50.8
	c-4.2,5.5-8.4,8.5-10.4,4.1c-2.5-5.6-3.4-11.7-4-18c-1.3-12.6-0.3-26.3-1.4-38.9c-0.9-9.5-6.7-12.6-16.2-9.9
	c-7.3,2-13.2,6.4-18.3,12.3c-3.7,4.4-7.4,8.7-11.6,13.6c-1.6-6.6-2.7-12.7-4.6-18.5c-2.3-6.8-6.9-8.4-14.2-6.7
	c-11.6,2.8-20,10.4-27.4,19.8c-2.7,3.4-5.3,6.9-8.5,11.2c-0.4-5.5,0.6-14,0.2-18.4c-0.8-7.2-4.5-8.9-11.5-6.3
	C18.7,137.2,0.1,152.1,0,155.4c0,2.8,5,5,12.4,2.1c4.5-1.8,6.5-7.9,11-7.1c0.6,0.3,0.4,0.5,0.1,1.9c-0.2,1.1-3.7,13.3-4,14.4
	c-4.1,15.2-4.4,27.2-4.3,34.8c0.2,8.2-0.8,16.9,11.5,19.9c3.6,0.9,6.9,2.2,9,0.9c5-3,6.7-5.7,7.7-11.5c0.8-4.6-0.9-18.6,0.3-30.2
	c1.4-13.7,7.6-24,19-31.7c5.5-3.7,11.6-2.1,12.4,4c0.4,3,0.1,6.2-0.3,9.3c-1.5,12-2.9,17.3-4.2,29.3c-1.3,11.6-3.6,17.1,7.2,22.9
	c1.6,0.9,9.4,3.5,11.1,3.5c9.5,0.3,10.8-6.7,11.3-13.9c0.8-11.3-1.4-18.5-1.7-29.8c-0.3-9.5,0.5-12.2,8.9-19.6
	c4.1-3.6,8.9-7.4,13.9-4.7c4.6,2.5,4.1,8.1,3.4,13.1c-1.2,9-2.6,18.8-2,27.7c1,16.1,13.1,20.3,15.9,21.1c10.5,2.7,19-3.7,25.5-11.3
	c11.6-13.3,19-33,24.4-44.1c4.9-10.1,5.9-13.8,6.8-15.5c-0.5,13.3-5.1,25.2-5,39c0,7.5-0.1,19.1,5.3,25.2c4.6,5.2,8,6.6,13.1,5.8
	c18.7-2.3,31.6-20.4,36.9-29.7c7.2-12.7,12.2-25.2,16-32.8c4.7-9.5,11-12,22.6-10.8c7.1,0.7,11.4,3.6,9.1,8
	c-5.6,10.7-26.9,45.9-29.5,54.2c-3.6,11.3,0.9,30.4,18.4,30.1c29.6-0.5,49.7-31,60.4-52.6c-0.2,8,0.8,16,4.7,24
	c3.6,7.3,8.7,13.4,16.6,13.6c11.3,0.4,21.3-3.1,29.2-10.7c6.2-6,11.5-12.9,17.3-19.5c0,1.5-0.2,3.2-0.1,4.8c0.5,6.9,1,10.7,3.4,17.9
	c1.3,3.7,3.9,8.3,8.1,8.9c1.8,0.3,4.6,0.8,11.2-0.6c6.7-1.3,20.9-4.9,31.2-20.2c7-10.3,16.5-28.3,21.8-36.7
	c-0.5,1.6-1.9,5.9-2.4,7.5c-3.7,11.6-3.3,25.1-3.1,34.7c0.2,11.5,2.8,17.9,14.5,20.9c12,3.1,14.5-4.6,14.1-14
	c-0.1-2.9-2.8-16.4-2.1-28.1c0.8-13.4,8.6-22.8,19.2-29.5c5.7-3.6,9.8-1.4,10.1,5.4c0.2,3-0.3,6.2-0.8,9.3
	c-1.8,11.8-2.8,22.6-4.6,34.4c-3.4,22.3,15.6,21.4,17.4,21.6c9.4,1.4,13,1.6,13.3-8.7c0.3-11.1-3.2-19.2-3.2-30.3
	c0-9.5,1.4-15.2,9.3-21.9c3.9-3.3,8.5-6.7,13.1-3.8c4.7,2.8,3.7,8.6,3,13.7c-1.2,9.2-1.5,8.7-1.2,17.6c0.4,12.5,3.4,16.3,6.9,19.6
	c2.3,2.2,5.3,3.7,8.3,4.4c23.2,5.9,35-7.5,39.9-14.7C639.4,194.2,639,192.3,638.7,191.3z"/>
</svg>
